<?xml version="1.0" encoding="UTF-8" standalone="no"?>
<svg
   xmlns:dc="http://purl.org/dc/elements/1.1/"
   xmlns:cc="http://creativecommons.org/ns#"
   xmlns:rdf="http://www.w3.org/1999/02/22-rdf-syntax-ns#"
   xmlns:svg="http://www.w3.org/2000/svg"
   xmlns="http://www.w3.org/2000/svg"
   xmlns:sodipodi="http://sodipodi.sourceforge.net/DTD/sodipodi-0.dtd"
   xmlns:inkscape="http://www.inkscape.org/namespaces/inkscape"
   version="1.1"
   id="Layer_1"
   x="0px"
   y="0px"
   width="100px"
   height="100px"
   viewBox="0 0 100 100"
   enable-background="new 0 0 100 100"
   xml:space="preserve"
   inkscape:version="0.48.3.1 r9886"
   sodipodi:docname="enlinuxclipper.svg"><metadata
   id="metadata13"><rdf:RDF><cc:Work
       rdf:about=""><dc:format>image/svg+xml</dc:format><dc:type
         rdf:resource="http://purl.org/dc/dcmitype/StillImage" /></cc:Work></rdf:RDF></metadata><defs
   id="defs11" /><sodipodi:namedview
   pagecolor="#ffffff"
   bordercolor="#666666"
   borderopacity="1"
   objecttolerance="10"
   gridtolerance="10"
   guidetolerance="10"
   inkscape:pageopacity="0"
   inkscape:pageshadow="2"
   inkscape:window-width="1301"
   inkscape:window-height="744"
   id="namedview9"
   showgrid="false"
   inkscape:zoom="2.36"
   inkscape:cx="-105.9322"
   inkscape:cy="50"
   inkscape:window-x="65"
   inkscape:window-y="24"
   inkscape:window-maximized="1"
   inkscape:current-layer="Layer_1" />
<g
   id="g3"
   style="fill:#bab7af;fill-opacity:1"
   transform="matrix(0.90221711,0,0,0.87307048,4.4328539,6.8009217)">
	<path
   d="m 71.546,26.437 0,0 -4.908,-9.578 H 32.695 l -4.908,9.578 0,0 H 2 V 82.768 H 32.89 V 82.696 C 29.463,80.201 26.609,76.967 24.574,73.22 H 11.548 l 0,0 V 35.985 l 0,0 h 22.075 l 4.908,-9.578 0,0 h 22.271 l 0,0 4.909,9.578 h 22.074 l 0,0 v 37.234 l 0,0 H 74.759 c -2.035,3.747 -4.889,6.981 -8.315,9.476 v 0.072 h 30.89 V 26.437 H 71.546 z"
   id="path5"
   style="fill:#bab7af;fill-opacity:1"
   inkscape:connector-curvature="0" />
	<path
   d="m 73.676,59.616 c 0,-13.239 -10.771,-24.01 -24.009,-24.01 -13.239,0 -24.009,10.771 -24.009,24.01 0,13.239 10.77,24.009 24.009,24.009 13.238,0 24.009,-10.77 24.009,-24.009 z M 49.667,74.077 c -7.974,0 -14.462,-6.488 -14.462,-14.461 0,-7.973 6.488,-14.461 14.462,-14.461 7.974,0 14.461,6.487 14.461,14.461 0,7.974 -6.487,14.461 -14.461,14.461 z"
   id="path7"
   style="fill:#bab7af;fill-opacity:1"
   inkscape:connector-curvature="0" />
</g>
</svg>